<svg xmlns="http://www.w3.org/2000/svg" viewBox="0 0 100 120">
  <path d="M 32 24 C 32 12 41 6 50 6 C 59 6 68 12 68 24 C 68 34 60 42 50 42 C 40 42 32 34 32 24 Z" fill="#4F6653"/>
  <path d="M 50 110 C 40 100 27 91 27 79 C 27 71 33 67 39 69 C 44 71 47 75 50 80 C 53 75 56 71 61 69 C 67 67 73 71 73 79 C 73 91 60 100 50 110 Z" fill="#4F6653"/>
  <path d="M 45 43 C 42 47 40 50 40 52 C 40 55 44 59 46 62 C 47 65 46 70 44 73 L 48 73 C 50 70 51 65 50 62 C 48 59 44 55 44 52 C 44 50 47 47 49 43 Z" fill="#D9C9AC"/>
  <path d="M 55 43 C 58 47 60 50 60 52 C 60 55 56 59 54 62 C 53 65 54 70 56 73 L 52 73 C 50 70 49 65 50 62 C 52 59 56 55 56 52 C 56 50 53 47 51 43 Z" fill="#D9C9AC"/>
  <path d="M 40 53 C 40 50 45 50 45 53 C 45 56 40 56 40 53 Z" fill="#BC6C4F"/>
  <path d="M 55 55 C 55 52 60 52 60 55 C 60 58 55 58 55 55 Z" fill="#BC6C4F"/>
</svg>
